<mxfile host="app.diagrams.net" modified="2022-12-06T12:55:10.727Z" agent="5.0 (Windows NT 10.0; Win64; x64) AppleWebKit/537.36 (KHTML, like Gecko) Chrome/108.0.0.0 Safari/537.36" version="20.6.0" etag="vGnRvaLWij39oxo33YVR" type="github">
  <diagram id="opRbN851AEoW9ykvf9_C" name="Page-1">
    <mxGraphModel dx="899" dy="1472" grid="1" gridSize="10" guides="1" tooltips="1" connect="1" arrows="1" fold="1" page="1" pageScale="1" pageWidth="850" pageHeight="1100" math="0" shadow="0">
      <root>
        <mxCell id="0" />
        <mxCell id="1" parent="0" />
        <mxCell id="mzzcEleAXUbefKg6ftuE-1" value="Customer" style="swimlane;fontStyle=1;align=center;verticalAlign=top;childLayout=stackLayout;horizontal=1;startSize=26;horizontalStack=0;resizeParent=1;resizeParentMax=0;resizeLast=0;collapsible=1;marginBottom=0;" vertex="1" parent="1">
          <mxGeometry x="170" y="-844" width="230" height="294" as="geometry" />
        </mxCell>
        <mxCell id="mzzcEleAXUbefKg6ftuE-2" value="- name: String&#xa;- contact: String&#xa;- vehicles: List&lt;Vehicle&gt;&#xa;- claims: List&lt;Claim&gt;&#xa;- payments: List&lt;Payment&gt;" style="text;strokeColor=none;fillColor=none;align=left;verticalAlign=top;spacingLeft=4;spacingRight=4;overflow=hidden;rotatable=0;points=[[0,0.5],[1,0.5]];portConstraint=eastwest;" vertex="1" parent="mzzcEleAXUbefKg6ftuE-1">
          <mxGeometry y="26" width="230" height="90" as="geometry" />
        </mxCell>
        <mxCell id="mzzcEleAXUbefKg6ftuE-3" value="" style="line;strokeWidth=1;fillColor=none;align=left;verticalAlign=middle;spacingTop=-1;spacingLeft=3;spacingRight=3;rotatable=0;labelPosition=right;points=[];portConstraint=eastwest;strokeColor=inherit;" vertex="1" parent="mzzcEleAXUbefKg6ftuE-1">
          <mxGeometry y="116" width="230" height="8" as="geometry" />
        </mxCell>
        <mxCell id="mzzcEleAXUbefKg6ftuE-4" value="+ getName(): String&#xa;+ getContactInfo(): String&#xa;+ setContactInfo(String):&#xa;+ setName(String):&#xa;+ updateVehicles(Vehicle): &#xa;+ getVehicles(): List&lt;Vehicle&gt;&#xa;+ makePayment(double):&#xa;+ getPayments(): List&lt;Payment&gt;&#xa;+ addClaim(Claim):&#xa;+ getClaims(): List&lt;Claim&gt; " style="text;strokeColor=none;fillColor=none;align=left;verticalAlign=top;spacingLeft=4;spacingRight=4;overflow=hidden;rotatable=0;points=[[0,0.5],[1,0.5]];portConstraint=eastwest;" vertex="1" parent="mzzcEleAXUbefKg6ftuE-1">
          <mxGeometry y="124" width="230" height="170" as="geometry" />
        </mxCell>
        <mxCell id="mzzcEleAXUbefKg6ftuE-5" value="Vehicle" style="swimlane;fontStyle=1;align=center;verticalAlign=top;childLayout=stackLayout;horizontal=1;startSize=26;horizontalStack=0;resizeParent=1;resizeParentMax=0;resizeLast=0;collapsible=1;marginBottom=0;" vertex="1" parent="1">
          <mxGeometry x="550" y="-844" width="220" height="242" as="geometry" />
        </mxCell>
        <mxCell id="mzzcEleAXUbefKg6ftuE-6" value="- registrationNumber: String&#xa;- policies: List&lt;InsurancePolicy&gt;&#xa;- currentValue: double&#xa;- damagedInventory: List&lt;String&gt;&#xa;- currentState: String" style="text;strokeColor=none;fillColor=none;align=left;verticalAlign=top;spacingLeft=4;spacingRight=4;overflow=hidden;rotatable=0;points=[[0,0.5],[1,0.5]];portConstraint=eastwest;" vertex="1" parent="mzzcEleAXUbefKg6ftuE-5">
          <mxGeometry y="26" width="220" height="84" as="geometry" />
        </mxCell>
        <mxCell id="mzzcEleAXUbefKg6ftuE-7" value="" style="line;strokeWidth=1;fillColor=none;align=left;verticalAlign=middle;spacingTop=-1;spacingLeft=3;spacingRight=3;rotatable=0;labelPosition=right;points=[];portConstraint=eastwest;strokeColor=inherit;" vertex="1" parent="mzzcEleAXUbefKg6ftuE-5">
          <mxGeometry y="110" width="220" height="8" as="geometry" />
        </mxCell>
        <mxCell id="mzzcEleAXUbefKg6ftuE-8" value="+ getRegistrationNumber: String&#xa;+ addPolicy(Policy): &#xa;+ getPolicies(): List&lt;InsurancePolicy&gt;&#xa;+ getDamagedInventory(): List&lt;String&gt;&#xa;+ updateInventory(String):&#xa;+ setCurrentState(String):&#xa;+ getCurrentState(double):" style="text;strokeColor=none;fillColor=none;align=left;verticalAlign=top;spacingLeft=4;spacingRight=4;overflow=hidden;rotatable=0;points=[[0,0.5],[1,0.5]];portConstraint=eastwest;" vertex="1" parent="mzzcEleAXUbefKg6ftuE-5">
          <mxGeometry y="118" width="220" height="124" as="geometry" />
        </mxCell>
      </root>
    </mxGraphModel>
  </diagram>
</mxfile>
